<svg xmlns="http://www.w3.org/2000/svg" viewBox="0 0 213.28 213.04"><title>Asset 5</title><g id="Layer_2" data-name="Layer 2"><g id="Layer_1-2" data-name="Layer 1"><path d="M76.72,174h59.59v24.67H76.72Z" style="fill:#425b61"/><path d="M202.1,177.46H10.94A10.94,10.94,0,0,1,0,166.52V10.94A10.94,10.94,0,0,1,10.94,0H202.1A10.93,10.93,0,0,1,213,10.94V166.52A10.93,10.93,0,0,1,202.1,177.46Z" style="fill:#3bb7ea"/><path d="M11.18,0A10.94,10.94,0,0,0,.24,10.94V166.52a10.94,10.94,0,0,0,10.94,10.94h98.34s-15.19-25-15.19-80.91c0-41,15.19-96.55,15.19-96.55Z" style="fill:#15a7dd"/><path d="M213,151.11H0v15.41a10.94,10.94,0,0,0,10.94,10.94H202.1A10.93,10.93,0,0,0,213,166.52Z" style="fill:#3b4f56"/><path d="M213.28,37.31H.24V10.94A10.93,10.93,0,0,1,11.17,0H202.34a10.94,10.94,0,0,1,10.94,10.94Z" style="fill:#3b4f56"/><path d="M155.62,213H57.41a2.14,2.14,0,0,1-2.14-2.14v-7a8.52,8.52,0,0,1,8.53-8.53h85.44a8.53,8.53,0,0,1,8.53,8.53v7A2.14,2.14,0,0,1,155.62,213Z" style="fill:#3b4f56"/><path d="M24.36,77.69a3.12,3.12,0,0,1-2.21-.92L12.07,66.69a3.13,3.13,0,0,1,0-4.42L22.15,52.19a3.13,3.13,0,0,1,4.42,4.42L18.7,64.48l7.87,7.87a3.13,3.13,0,0,1-2.21,5.34Z" style="fill:#fff"/><path d="M48.46,77.69a3.13,3.13,0,0,1-2.21-5.34l7.87-7.87-7.87-7.87a3.13,3.13,0,0,1,4.42-4.42L60.75,62.27a3.13,3.13,0,0,1,0,4.42L50.67,76.77A3.12,3.12,0,0,1,48.46,77.69Z" style="fill:#fff"/><path d="M32.79,77.69a3.08,3.08,0,0,1-1.14-.22,3.13,3.13,0,0,1-1.77-4l7.93-20.16a3.12,3.12,0,1,1,5.81,2.28L35.7,75.7A3.11,3.11,0,0,1,32.79,77.69Z" style="fill:#fff"/><path d="M37.76,96.55H16.1a3.13,3.13,0,1,1,0-6.25H37.76a3.13,3.13,0,0,1,0,6.25Z" style="fill:#fff"/><path d="M87.65,96.55H49.57a3.13,3.13,0,1,1,0-6.25H87.65a3.13,3.13,0,1,1,0,6.25Z" style="fill:#fff"/><path d="M25.33,110.11H16.1a3.13,3.13,0,1,1,0-6.25h9.23a3.13,3.13,0,0,1,0,6.25Z" style="fill:#fff"/><path d="M81.51,110.11H75.89a3.13,3.13,0,1,1,0-6.25h5.62a3.13,3.13,0,0,1,0,6.25Z" style="fill:#fff"/><path d="M64.21,110.11H36.61a3.13,3.13,0,1,1,0-6.25h27.6a3.13,3.13,0,0,1,0,6.25Z" style="fill:#fff"/><path d="M102.23,110.11H91.7a3.13,3.13,0,0,1,0-6.25h10.53a3.13,3.13,0,0,1,0,6.25Z" style="fill:#fff"/><path d="M82.08,67H71a3.13,3.13,0,1,1,0-6.25h11.1a3.13,3.13,0,0,1,0,6.25Z" style="fill:#fff"/><path d="M162.25,67H94.51a3.13,3.13,0,0,1,0-6.25h67.74a3.13,3.13,0,1,1,0,6.25Z" style="fill:#fff"/><path d="M152,81.12H124.52a3.13,3.13,0,0,1,0-6.25H152a3.13,3.13,0,1,1,0,6.25Z" style="fill:#fff"/><path d="M114.23,81.12H104.8a3.13,3.13,0,0,1,0-6.25h9.43a3.13,3.13,0,1,1,0,6.25Z" style="fill:#fff"/><path d="M94.08,81.12H71a3.13,3.13,0,0,1,0-6.25H94.08a3.13,3.13,0,1,1,0,6.25Z" style="fill:#fff"/><path d="M64.25,123.56H42.59a3.13,3.13,0,1,1,0-6.25H64.25a3.13,3.13,0,0,1,0,6.25Z" style="fill:#fff"/><path d="M32.74,123.56H16.1a3.13,3.13,0,1,1,0-6.25H32.74a3.13,3.13,0,0,1,0,6.25Z" style="fill:#fff"/><path d="M103.52,123.56H75.22a3.13,3.13,0,0,1,0-6.25h28.3a3.13,3.13,0,0,1,0,6.25Z" style="fill:#fff"/><path d="M123.58,109.72h69.63V133.3H123.58Z" style="fill:#15a7dd"/><path d="M123.58,146.16h69.63V168H123.58Z" style="fill:#15a7dd"/><path d="M199,114.84H117.81a3.1,3.1,0,0,1-3.1-3.11V96.11a3.1,3.1,0,0,1,3.1-3.11H199a3.11,3.11,0,0,1,3.11,3.11v15.62A3.11,3.11,0,0,1,199,114.84Z" style="fill:#fbb042"/><path d="M199,149.88H117.81a3.1,3.1,0,0,1-3.1-3.11V131.15a3.1,3.1,0,0,1,3.1-3.11H199a3.11,3.11,0,0,1,3.11,3.11v15.62A3.11,3.11,0,0,1,199,149.88Z" style="fill:#fbb042"/><path d="M199,184.92H117.81a3.1,3.1,0,0,1-3.1-3.1V166.19a3.1,3.1,0,0,1,3.1-3.11H199a3.11,3.11,0,0,1,3.11,3.11v15.63A3.1,3.1,0,0,1,199,184.92Z" style="fill:#fbb042"/><path d="M141.78,107H126.31a3.13,3.13,0,1,1,0-6.25h15.47a3.13,3.13,0,1,1,0,6.25Z" style="fill:#fff"/><path d="M190.48,107H168.63a3.13,3.13,0,0,1,0-6.25h21.85a3.13,3.13,0,0,1,0,6.25Z" style="fill:#fff"/><path d="M157.71,107h-5a3.13,3.13,0,0,1,0-6.25h5a3.13,3.13,0,0,1,0,6.25Z" style="fill:#fff"/><path d="M141.78,142.08H126.31a3.12,3.12,0,1,1,0-6.24h15.47a3.12,3.12,0,1,1,0,6.24Z" style="fill:#fff"/><path d="M190.48,142.08H168.63a3.12,3.12,0,0,1,0-6.24h21.85a3.12,3.12,0,0,1,0,6.24Z" style="fill:#fff"/><path d="M157.71,142.08h-5a3.12,3.12,0,1,1,0-6.24h5a3.12,3.12,0,0,1,0,6.24Z" style="fill:#fff"/><path d="M141.78,177.13H126.31a3.13,3.13,0,1,1,0-6.25h15.47a3.13,3.13,0,1,1,0,6.25Z" style="fill:#fff"/><path d="M190.48,177.13H168.63a3.13,3.13,0,0,1,0-6.25h21.85a3.13,3.13,0,0,1,0,6.25Z" style="fill:#fff"/><path d="M157.71,177.13h-5a3.13,3.13,0,0,1,0-6.25h5a3.13,3.13,0,0,1,0,6.25Z" style="fill:#fff"/><path d="M26.72,18.56a6.22,6.22,0,1,1-6.22-6.22A6.22,6.22,0,0,1,26.72,18.56Z" style="fill:#ef4861"/><path d="M50.74,18.56a6.22,6.22,0,1,1-6.22-6.22A6.21,6.21,0,0,1,50.74,18.56Z" style="fill:#fdb515"/><path d="M74.77,18.56a6.22,6.22,0,1,1-6.22-6.22A6.22,6.22,0,0,1,74.77,18.56Z" style="fill:#05a8b0"/></g></g></svg>