<svg xmlns="http://www.w3.org/2000/svg" viewBox="0 0 218.5 220.77"><title>Asset 4</title><g id="Layer_2" data-name="Layer 2"><g id="Layer_1-2" data-name="Layer 1"><path d="M176.48,4.17V9.84A4.17,4.17,0,0,0,180.65,14h6a4.17,4.17,0,0,1,3,7.07A415.71,415.71,0,0,1,55,114a4.19,4.19,0,0,0-2.22,5.44L55,124.69a4.17,4.17,0,0,0,5.47,2.25A430.22,430.22,0,0,0,197.36,33.27a4.16,4.16,0,0,1,7.13,2.92v1.66A4.17,4.17,0,0,0,208.66,42h5.67a4.16,4.16,0,0,0,4.17-4.17V4.17A4.17,4.17,0,0,0,214.33,0H180.65A4.17,4.17,0,0,0,176.48,4.17Z" style="fill:#fbb042"/><path d="M.14,137.28l1.47,5.52a4.17,4.17,0,0,0,5.15,2.94c1.86-.52,3.73-1.05,5.58-1.59a4.18,4.18,0,0,0,2.84-5.21l-1.64-5.42a4.19,4.19,0,0,0-5.19-2.8q-2.64.76-5.29,1.5A4.14,4.14,0,0,0,.14,137.28Z" style="fill:#fbb042"/><path d="M26.8,129.28l1.81,5.35a4.17,4.17,0,0,0,5.31,2.61q2.78-1,5.52-2a4.16,4.16,0,0,0,2.45-5.38l-2-5.29a4.19,4.19,0,0,0-5.37-2.44L29.4,124A4.18,4.18,0,0,0,26.8,129.28Z" style="fill:#fbb042"/><path d="M63,176.36s-23.1,2.41-17.13,18c1.23,3.24,2.56,6.55,3.89,9.78H65.39V176.11C63.9,176.31,63,176.36,63,176.36Z" style="fill:none"/><path d="M37.23,146.28H35.08l1.05,1.9C36.49,147.52,36.86,146.89,37.23,146.28Z" style="fill:none"/><path d="M63,176.36s.86-.05,2.35-.25V146.28H37.23c-.37.61-.74,1.24-1.1,1.9l-1.05-1.9H9.39v57.89H49.8c-1.33-3.23-2.66-6.54-3.89-9.78C39.94,178.77,63,176.36,63,176.36Z" style="fill:#15a7dd"/><path d="M29,146.28H9.39v57.89H37.31C32.22,186.53,29.93,162.64,29,146.28Z" style="fill:none"/><path d="M65.39,204.17V146.28H29c1,16.36,3.27,40.25,8.36,57.89Z" style="fill:#3bb7ea"/><path d="M134.91,154.78s-23.11,4.28-17.14,32c1.23,5.77,2.57,11.65,3.9,17.38h15.58V154.33A17.41,17.41,0,0,1,134.91,154.78Z" style="fill:none"/><path d="M109.09,101.35H107c.34,1.13.69,2.25,1,3.38C108.36,103.56,108.72,102.44,109.09,101.35Z" style="fill:none"/><path d="M134.91,154.78a17.41,17.41,0,0,0,2.34-.45v-53H109.09c-.37,1.09-.73,2.21-1.09,3.38-.36-1.13-.71-2.25-1-3.38H81.25V204.17h40.42c-1.33-5.73-2.67-11.61-3.9-17.38C111.8,159.06,134.91,154.78,134.91,154.78Z" style="fill:#15a7dd"/><path d="M100.81,101.35H81.25V204.17h27.93C104.09,172.85,101.8,130.41,100.81,101.35Z" style="fill:none"/><path d="M137.25,204.17V101.35H96.15c-.94,64,6,88.79,13,102.82Z" style="fill:#3bb7ea"/><path d="M207.69,127.53s-23.1,6.58-17.14,49.19c1.24,8.86,2.57,17.9,3.9,26.7H210V126.85A12.16,12.16,0,0,1,207.69,127.53Z" style="fill:none"/><path d="M181.87,45.44h-2.14c.35,1.73.69,3.46,1.05,5.19C181.14,48.84,181.5,47.12,181.87,45.44Z" style="fill:none"/><path d="M207.69,127.53a12.16,12.16,0,0,0,2.34-.68V45.44H181.87c-.37,1.68-.73,3.4-1.09,5.19-.36-1.73-.7-3.46-1.05-5.19H154v158h40.42c-1.33-8.8-2.66-17.84-3.9-26.7C184.59,134.11,207.69,127.53,207.69,127.53Z" style="fill:#15a7dd"/><path d="M173.59,45.44H154v158H182C176.87,155.3,174.58,90.1,173.59,45.44Z" style="fill:none"/><path d="M210,203.42v-158h-41.1c-.93,98.29,6,136.42,13,158Z" style="fill:#3bb7ea"/><path d="M213.7,213.57H4.8a3.6,3.6,0,1,0,0,7.2H213.7a3.6,3.6,0,1,0,0-7.2Z" style="fill:#3b4f56"/><path d="M87.64,206.37h43.22a10.76,10.76,0,0,0,8-18,10.66,10.66,0,0,0,0-14.41,10.64,10.64,0,0,0,0-14.4,10.66,10.66,0,0,0,0-14.41,10.66,10.66,0,0,0,0-14.41,10.64,10.64,0,0,0,0-14.4,10.76,10.76,0,0,0-8-18H87.64a10.76,10.76,0,0,0-8,18,10.64,10.64,0,0,0,0,14.4,10.66,10.66,0,0,0,0,14.41,10.66,10.66,0,0,0,0,14.41,10.64,10.64,0,0,0,0,14.4,10.66,10.66,0,0,0,0,14.41,10.76,10.76,0,0,0,8,18Zm0-100.85h43.22a3.61,3.61,0,0,1,0,7.21H87.64a3.61,3.61,0,0,1,0-7.21Zm0,14.41h43.22a3.6,3.6,0,1,1,0,7.2H87.64a3.6,3.6,0,0,1,0-7.2Zm0,14.41h43.22a3.6,3.6,0,0,1,0,7.2H87.64a3.6,3.6,0,0,1,0-7.2Zm0,14.4h43.22a3.6,3.6,0,1,1,0,7.2H87.64a3.6,3.6,0,1,1,0-7.2Zm0,14.41h43.22a3.6,3.6,0,0,1,0,7.2H87.64a3.6,3.6,0,0,1,0-7.2Zm0,14.4h43.22a3.61,3.61,0,0,1,0,7.21H87.64a3.61,3.61,0,0,1,0-7.21Zm0,14.41h43.22a3.6,3.6,0,0,1,0,7.2H87.64a3.6,3.6,0,0,1,0-7.2Z" style="fill:#3b4f56"/><path d="M15.61,206.37H58.83a10.76,10.76,0,0,0,8-18,10.64,10.64,0,0,0,0-14.41,10.62,10.62,0,0,0,0-14.4,10.76,10.76,0,0,0-8-18H15.61a10.76,10.76,0,0,0-8,18,10.64,10.64,0,0,0,0,14.4,10.66,10.66,0,0,0,0,14.41,10.76,10.76,0,0,0,8,18Zm0-57.63H58.83a3.6,3.6,0,1,1,0,7.2H15.61a3.6,3.6,0,0,1,0-7.2Zm0,14.41H58.83a3.6,3.6,0,1,1,0,7.2H15.61a3.6,3.6,0,0,1,0-7.2Zm0,14.4H58.83a3.61,3.61,0,0,1,0,7.21H15.61a3.61,3.61,0,0,1,0-7.21Zm0,14.41H58.83a3.6,3.6,0,1,1,0,7.2H15.61a3.6,3.6,0,0,1,0-7.2Z" style="fill:#3b4f56"/><path d="M159.67,206.37h43.22a10.76,10.76,0,0,0,8-18,10.66,10.66,0,0,0,0-14.41,10.64,10.64,0,0,0,0-14.4,10.66,10.66,0,0,0,0-14.41,10.66,10.66,0,0,0,0-14.41,10.64,10.64,0,0,0,0-14.4,10.66,10.66,0,0,0,0-14.41,10.66,10.66,0,0,0,0-14.41,10.64,10.64,0,0,0,0-14.4,10.66,10.66,0,0,0,0-14.41,10.76,10.76,0,0,0-8-18H159.67a10.76,10.76,0,0,0-8,18,10.64,10.64,0,0,0,0,14.41,10.62,10.62,0,0,0,0,14.4,10.64,10.64,0,0,0,0,14.41,10.64,10.64,0,0,0,0,14.41,10.62,10.62,0,0,0,0,14.4,10.64,10.64,0,0,0,0,14.41,10.64,10.64,0,0,0,0,14.41,10.62,10.62,0,0,0,0,14.4,10.64,10.64,0,0,0,0,14.41,10.76,10.76,0,0,0,8,18Zm0-158.47h43.22a3.6,3.6,0,1,1,0,7.2H159.67a3.6,3.6,0,1,1,0-7.2Zm0,14.4h43.22a3.61,3.61,0,0,1,0,7.21H159.67a3.61,3.61,0,0,1,0-7.21Zm0,14.41h43.22a3.6,3.6,0,0,1,0,7.2H159.67a3.6,3.6,0,1,1,0-7.2Zm0,14.41h43.22a3.6,3.6,0,1,1,0,7.2H159.67a3.6,3.6,0,0,1,0-7.2Zm0,14.4h43.22a3.61,3.61,0,0,1,0,7.21H159.67a3.61,3.61,0,0,1,0-7.21Zm0,14.41h43.22a3.6,3.6,0,1,1,0,7.2H159.67a3.6,3.6,0,0,1,0-7.2Zm0,14.41h43.22a3.6,3.6,0,1,1,0,7.2H159.67a3.6,3.6,0,0,1,0-7.2Zm0,14.4h43.22a3.6,3.6,0,1,1,0,7.2H159.67a3.6,3.6,0,0,1,0-7.2Zm0,14.41h43.22a3.6,3.6,0,1,1,0,7.2H159.67a3.6,3.6,0,0,1,0-7.2Zm0,14.4h43.22a3.61,3.61,0,0,1,0,7.21H159.67a3.61,3.61,0,0,1,0-7.21Zm0,14.41h43.22a3.6,3.6,0,1,1,0,7.2H159.67a3.6,3.6,0,0,1,0-7.2Z" style="fill:#3b4f56"/></g></g></svg>