<svg xmlns="http://www.w3.org/2000/svg" viewBox="0 0 240 204"><title>Asset 6</title><g id="Layer_2" data-name="Layer 2"><g id="Layer_1-2" data-name="Layer 1"><path d="M200,68c-.46-34.8-28.77-64-63.67-64C114.1,4,93.22,16,81.69,33.34A32,32,0,0,0,32,60c0,.61.06,1.21.09,1.82S32,63.28,32,64C16.05,71.65,4,89.83,4,108.62A47.52,47.52,0,0,0,51.38,156h98c.55,0,1.09-.06,1.63-.08s1.08.08,1.63.08h39.21A44.24,44.24,0,0,0,236,111.89C236,90.4,220.42,71.84,200,68Z" style="fill:#3bb7ea"/><path d="M81.69,33.34A32,32,0,0,0,32,60c0,.61.06,1.21.09,1.82S32,63.28,32,64C16.05,71.65,4,89.83,4,108.62A47.52,47.52,0,0,0,51.38,156H132.5S120,108.16,120,82.69C120,39.69,136.34,4,136.34,4,114.1,4,93.22,16,81.69,33.34Z" style="fill:#15a7dd"/><path d="M191.89,160H152.68c-.42,0-.84,0-1.25-.06l-.53,0-.25,0c-.41,0-.83.06-1.25.06h-98A51.44,51.44,0,0,1,0,108.62c0-19,11.43-38,28.06-47.1,0-.5-.06-1-.06-1.52A36,36,0,0,1,80.55,28,70.51,70.51,0,0,1,136.34,0c35.77,0,65.45,28.78,67.56,64.78,20.79,5.46,36.1,25.15,36.1,47.11A48.16,48.16,0,0,1,191.89,160Zm-41-8.08,1.08,0c.23,0,.46,0,.7,0h39.21A40.16,40.16,0,0,0,232,111.89c0-19.27-14.07-36.44-32.73-40l-3.21-.6L196,68.06C195.58,34.94,168.81,8,136.34,8,116.31,8,96.17,18.82,85,35.56l-2.21,3.33-3.33-2.21A28,28,0,0,0,36,60c0,.34,0,.67,0,1l.05.81,0,.69c0,.5-.06,1-.06,1.5v2.52L33.73,67.6C18.82,74.75,8,92,8,108.62A43.43,43.43,0,0,0,51.38,152h98c.23,0,.46,0,.69,0Z" style="fill:#3b4f56"/><path d="M200,68a77.17,77.17,0,0,0-20,0" style="fill:#92bae1"/><path d="M180,72a4,4,0,0,1-.6-8,80.51,80.51,0,0,1,21.2,0A4,4,0,0,1,199.43,72a74.09,74.09,0,0,0-18.83,0A4,4,0,0,1,180,72Z" style="fill:#3b4f56"/><path d="M32,60a32,32,0,0,1,64,0" style="fill:#15a7dc"/><path d="M96,64a4,4,0,0,1-4-4,28,28,0,0,0-56,0,4,4,0,0,1-8,0,36,36,0,0,1,72,0A4,4,0,0,1,96,64Z" style="fill:#3b4f56"/><circle cx="124" cy="156" r="48" style="fill:#fbb042"/><path d="M138.42,154.8a4.2,4.2,0,0,1,4.2,4.2v14a4.18,4.18,0,0,1-4.2,4.2h-30.8a4.17,4.17,0,0,1-4.2-4.2V159a4.18,4.18,0,0,1,4.2-4.2h2.1v-9a13,13,0,0,1,1.79-6.65,13.93,13.93,0,0,1,4.81-4.9A12.61,12.61,0,0,1,123,132.4a13,13,0,0,1,6.7,1.8,13.27,13.27,0,0,1,4.85,4.85,12.92,12.92,0,0,1,1.8,6.65v1.4a2.05,2.05,0,0,1-.61,1.49,2,2,0,0,1-1.49.61h-2.8a2.08,2.08,0,0,1-2.1-2.1v-1.4a6,6,0,0,0-1.88-4.46A6.2,6.2,0,0,0,123,139.4a5.92,5.92,0,0,0-4.41,1.89,6.18,6.18,0,0,0-1.84,4.5v9Z" style="fill:#fff"/></g></g></svg>