<svg xmlns="http://www.w3.org/2000/svg" viewBox="0 0 188.11 164.24"><title>Asset 3</title><g id="Layer_2" data-name="Layer 2"><g id="Layer_1-2" data-name="Layer 1"><path d="M133.65,89.44H108.09A12.7,12.7,0,0,0,95.4,102.13v19.6a12.69,12.69,0,0,0,12.69,12.68h25.56a12.69,12.69,0,0,0,12.68-12.68v-19.6A12.7,12.7,0,0,0,133.65,89.44Zm3.46,32.29a3.47,3.47,0,0,1-3.46,3.46H108.09a3.47,3.47,0,0,1-3.46-3.46v-19.6a3.47,3.47,0,0,1,3.46-3.46h25.56a3.47,3.47,0,0,1,3.46,3.46Z" style="fill:#3b4f56"/><path d="M188.11,53.81a4.32,4.32,0,0,0-.61-2.27l-28-49.2a4.62,4.62,0,0,0-4-2.34h-123a4.55,4.55,0,0,0-4,2.34L.61,51.54A4.73,4.73,0,0,0,0,53.81,27,27,0,0,0,16.14,78.49v81.14a4.63,4.63,0,0,0,4.62,4.61H167.32a4.62,4.62,0,0,0,4.61-4.61V79.07a1.91,1.91,0,0,0,0-.5A27.07,27.07,0,0,0,188.11,53.81ZM35.25,9.26H152.83L174.7,47.74H13.41Zm98.63,47.67a17.73,17.73,0,0,1-34.9,0Zm-44.71,0a17.75,17.75,0,0,1-34.94,0Zm-79.64,0H44.47a17.75,17.75,0,0,1-34.94,0Zm68,98.09H51V105.24a6.57,6.57,0,0,1,6.57-6.57H71a6.57,6.57,0,0,1,6.58,6.57V155Zm85.21,0h-76V105.24a15.82,15.82,0,0,0-15.79-15.8H57.5a15.83,15.83,0,0,0-15.8,15.8v49.82H25.37V80.76c.54,0,1.07,0,1.61,0A26.94,26.94,0,0,0,49.35,68.88a27,27,0,0,0,44.74,0,26.9,26.9,0,0,0,44.67,0,26.94,26.94,0,0,0,22.37,11.91c.54,0,1,0,1.57,0V155Zm-1.57-83.45A17.71,17.71,0,0,1,143.68,57h34.94A17.83,17.83,0,0,1,161.13,71.57Z" style="fill:#3b4f56"/></g></g></svg>