<svg xmlns="http://www.w3.org/2000/svg" viewBox="0 0 185.19 164.24"><title>Asset 2</title><g id="Layer_2" data-name="Layer 2"><g id="Layer_1-2" data-name="Layer 1"><path d="M174.64,9a1.55,1.55,0,0,1,1.55,1.55V153.69a1.54,1.54,0,0,1-1.55,1.55H10.55A1.55,1.55,0,0,1,9,153.69V10.55A1.56,1.56,0,0,1,10.55,9H174.64m0-9H10.55A10.55,10.55,0,0,0,0,10.55V153.69a10.55,10.55,0,0,0,10.55,10.55H174.64a10.55,10.55,0,0,0,10.55-10.55V10.55A10.55,10.55,0,0,0,174.64,0Z" style="fill:#3b4f56"/><path d="M161.45,99h-2v4h2V99Zm-4,0h-2v4h2V99Zm-4,0h-2v4h2V99Zm-4,0h-2v4h2V99Zm-4,0h-2v4h2V99Zm-4,0h-2v4h2V99Zm-4,0h-2v4h2V99Zm-4,0h-2v4h2V99Zm-4,0h-2v4h2V99Zm-4,0h-2v4h2V99Zm-4,0h-2v4h2V99Zm-4,0h-2v4h2V99Zm-4,0h-2v4h2V99Zm-4,0h-2v4h2V99Zm-4,0h-2v4h2V99Zm-4,0h-2v4h2V99Zm-4,0h-2v4h2V99Zm-4,0h-2v4h2V99Zm-4,0h-2v4h2V99Zm-4,0h-2v4h2V99Zm-4,0h-2v4h2V99Zm-4,0h-2v4h2V99Zm-4,0h-2v4h2V99Zm-4,0h-2v4h2V99Zm-4,0h-2v4h2V99Zm-4,0h-2v4h2V99Zm-4,0h-2v4h2V99Zm-4,0h-2v4h2V99Zm-4,0h-2v4h2V99Zm-4,0h-2v4h2V99Zm-4,0h-2v4h2V99Zm-4,0h-2v4h2V99Zm-4,0h-2v4h2V99Zm-4,0h-2v4h2V99Zm-4,0h-2v4h2V99Zm-4,.35a4.24,4.24,0,0,0-.77.38h-.06a6,6,0,0,0-.85.65l2.74,2.91a1.33,1.33,0,0,1,.39-.24l-1.45-3.73ZM18.65,102a5.47,5.47,0,0,0-.47,1.94l4,.17a1.14,1.14,0,0,1,.11-.44L18.65,102Zm3.53,3.94h-4v2h4v-2Zm0,4h-4v2h4v-2Zm0,4h-4v2h4v-2Zm0,4h-4v2h4v-2Zm0,4h-4v2h4v-2Zm0,4h-4v2h4v-2Zm0,4h-4v2h4v-2Zm0,4h-4v2h4v-2Zm0,4h-4v2h4v-2Zm0,4h-4v1.34h0v0h0v0h0v.13h0v0h0v0h0s0,.1,0,.15l4-.5a.76.76,0,0,1,0-.15v-1.34Zm.15,1.92-3.49,2a5.25,5.25,0,0,0,1.29,1.52l2.5-3.13a1.24,1.24,0,0,1-.3-.35Zm.7.56-1.14,3.83a4.38,4.38,0,0,0,.8.17h1.18v-4h-.5a1.27,1.27,0,0,1-.34-.05Zm4.84.05h-2v4h2v-4Zm4,0h-2v4h2v-4Zm4,0h-2v4h2v-4Zm4,0h-2v4h2v-4Zm4,0h-2v4h2v-4Zm4,0h-2v4h2v-4Zm4,0h-2v4h2v-4Zm4,0h-2v4h2v-4Zm4,0h-2v4h2v-4Zm4,0h-2v4h2v-4Zm4,0h-2v4h2v-4Zm4,0h-2v4h2v-4Zm4,0h-2v4h2v-4Zm4,0h-2v4h2v-4Zm4,0h-2v4h2v-4Zm4,0h-2v4h2v-4Zm4,0h-2v4h2v-4Zm4,0h-2v4h2v-4Zm4,0h-2v4h2v-4Zm4,0h-2v4h2v-4Zm4,0h-2v4h2v-4Zm4,0h-2v4h2v-4Zm4,0h-2v4h2v-4Zm4,0h-2v4h2v-4Zm4,0h-2v4h2v-4Zm4,0h-2v4h2v-4Zm4,0h-2v4h2v-4Zm4,0h-2v4h2v-4Zm4,0h-2v4h2v-4Zm4,0h-2v4h2v-4Zm4,0h-2v4h2v-4Zm4,0h-2v4h2v-4Zm4,0h-2v4h2v-4Zm4,0h-2v4h2v-4Zm2.11-.13a1.06,1.06,0,0,1-.43.12l.32,4,.3,0h.14a4.93,4.93,0,0,0,.8-.21h.17c.17-.06.34-.14.51-.22L162,144.33Zm.59-.67a1.26,1.26,0,0,1-.22.39l3,2.63a5.26,5.26,0,0,0,1-1.72l-3.78-1.3Zm4.07-2.67h-4v2h4v-2Zm0-4h-4v2h4v-2Zm0-4h-4v2h4v-2Zm0-4h-4v2h4v-2Zm0-4h-4v2h4v-2Zm0-4h-4v2h4v-2Zm0-4h-4v2h4v-2Zm0-4h-4v2h4v-2Zm0-4h-4v2h4v-2Zm0-4h-4v2h4v-2Zm-.94-3.8-3.27,2.29a1.5,1.5,0,0,1,.18.41l3.9-.89a5.88,5.88,0,0,0-.27-.84h-.05a4.89,4.89,0,0,0-.49-.86Zm-3.27-2.13-.75,3.93a1.15,1.15,0,0,1,.41.17l2.18-3.35a5.14,5.14,0,0,0-1.84-.75Z" style="fill:#3b4f56"/><path d="M163,68h-2v4h2v-.26h0v-.07h0v0l3.3-1.6a3.44,3.44,0,0,0-.35-.58h-.12v0h0a3.85,3.85,0,0,0-.83-.73l-2,3.07.11-3.66H163V71.7h0V68Zm-4,0h-2v4h2V68Zm-4,0h-2v4h2V68Zm-4,0h-2v4h2V68Zm-4,0h-2v4h2V68Zm-4,0h-2v4h2V68Zm-4,0h-2v4h2V68Zm-4,0h-2v4h2V68Zm-4,0h-2v4h2V68Zm-4,0h-2v4h2V68Zm-4,0h-2v4h2V68Zm-4,0h-2v4h2V68Zm-4,0h-2v4h2V68Zm-4,0h-2v4h2V68Zm-4,0h-2v4h2V68Zm-4,0h-2v4h2V68Zm-4,0H97v4h2V68Zm-4,0H93v4h2V68Zm-4,0H89v4h2V68Zm-4,0H85v4h2V68Zm-4,0H81v4h2V68Zm-4,0H77v4h2V68Zm-4,0H73v4h2V68Zm-4,0H69v4h2V68Zm-4,0H65v4h2V68Zm-4,0H61v4h2V68Zm-4,0H57v4h2V68Zm-4,0H53v4h2V68Zm-4,0H49v4h2V68Zm-4,0H45v4h2V68Zm-4,0H41v4h2V68Zm-4,0H37v4h2V68Zm-4,0H33v4h2V68Zm-4,0H29v4h2V68Zm-4,0H25v4h2V68Zm-4,0H21.3l-.32.07.86,3.56-2.58-2.6a3.61,3.61,0,0,0-.81,1.23h0v0h0v0h-.12v0h0v0h0v0h0v0h0l3.56.88h0V72H23V68Zm-.79,4.79h-4v2h4v-2Zm0,4h-4v2h4v-2Zm0,4h-4v2h4v-2Zm0,4h-4v2h4v-2Zm-.33,4v0H18.18v.29h0v0h0v0h0v0h0v0h0v0h0v0h0a4.21,4.21,0,0,0,.3.84l3.27-1.65h.34v-.29H22a.3.3,0,0,0-.16,0Zm0,.34-2,3.1a3.21,3.21,0,0,0,.45.24h.21a3.59,3.59,0,0,0,1.23.24l.06-3.66Zm3.94-.34h-2v4h2v-4Zm4,0h-2v4h2v-4Zm4,0h-2v4h2v-4Zm4,0h-2v4h2v-4Zm4,0h-2v4h2v-4Zm4,0h-2v4h2v-4Zm4,0h-2v4h2v-4Zm4,0h-2v4h2v-4Zm4,0h-2v4h2v-4Zm4,0h-2v4h2v-4Zm4,0h-2v4h2v-4Zm4,0h-2v4h2v-4Zm4,0h-2v4h2v-4Zm4,0h-2v4h2v-4Zm4,0h-2v4h2v-4Zm4,0h-2v4h2v-4Zm4,0h-2v4h2v-4Zm4,0h-2v4h2v-4Zm4,0h-2v4h2v-4Zm4,0h-2v4h2v-4Zm4,0h-2v4h2v-4Zm4,0h-2v4h2v-4Zm4,0h-2v4h2v-4Zm4,0h-2v4h2v-4Zm4,0h-2v4h2v-4Zm4,0h-2v4h2v-4Zm4,0h-2v4h2v-4Zm4,0h-2v4h2v-4Zm4,0h-2v4h2v-4Zm4,0h-2v4h2v-4Zm4,0h-2v4h2v-4Zm4,0h-2v4h2v-4Zm4,0h-2v4h2v-4Zm4,0h-2v4h2v-4Zm4,0h-2v4h2v-4Zm1.18.33.82,3.57h1.38a3.27,3.27,0,0,0,.35-.3L163,89.12Zm3.67-1.06h-4v1.06H163l3.55.93a3.4,3.4,0,0,0,.07-.34h0v0h0v0h0V88.06Zm0-4h-4v2h4v-2Zm0-4h-4v2h4v-2Zm0-4h-4v2h4v-2Zm0-4h-4v2h4v-2Z" style="fill:#3b4f56"/><path d="M86.7,37.11h-2v4h.53V42.9h4v-2H86.7V39.65l2.42-.73a2.25,2.25,0,0,0-.33-.7h-.06a2.66,2.66,0,0,0-.84-.72L86.7,39.65V37.11Zm-4,0h-2v4h2v-4Zm-4,0h-2v4h2v-4Zm-4,0h-2v4h2v-4Zm-4,0h-2v4h2v-4Zm-4,0h-2v4h2v-4Zm-4,0h-2v4h2v-4Zm-4,0h-2v4h2v-4Zm-4,0h-2v4h2v-4Zm-4,0h-2v4h2v-4Zm-4,0h-2v4h2v-4Zm-4,0h-2v4h2v-4Zm-4,0h-2v4h2v-4Zm-4,0h-2v4h2v-4Zm-4,0h-2v4h2v-4Zm-4,0h-2v4h2v-4Zm-4,0h-2v2.54h0v1.46h2v-4Zm-3.8.77a2.57,2.57,0,0,0-.69,1.36h0v.07h2.53L18.9,37.88Zm3.28,3.81h-4v2h4v-2Zm0,4h-4v2h4v-2Zm0,4h-4v2h4v-2Zm0,4h-4v2h4v-2Zm0,4h-4v1.63h0v0h0s0,.07,0,.11l2.51-.37h0v2.54h.38V59.32h1.08V57.69Zm-1.46,1.63-1.51,2a3.17,3.17,0,0,0,.36.23h1.15V59.32Zm4.38-1.46h-2v4h2v-4Zm4,0h-2v4h2v-4Zm4,0h-2v4h2v-4Zm4,0h-2v4h2v-4Zm4,0h-2v4h2v-4Zm4,0h-2v4h2v-4Zm4,0h-2v4h2v-4Zm4,0h-2v4h2v-4Zm4,0h-2v4h2v-4Zm4,0h-2v4h2v-4Zm4,0h-2v4h2v-4Zm4,0h-2v4h2v-4Zm4,0h-2v4h2v-4Zm4,0h-2v4h2v-4Zm4,0h-2v4h2v-4Zm4,0h-2v4h2v-4Zm1.6,1.46.4,2.51a2.51,2.51,0,0,0,1.65-1l-2-1.48Zm2.53-2.42h-4v2h.89l.58.42-.07-.42h2.6v-2Zm0-4h-4v2h4v-2Zm0-4h-4v2h4v-2Zm0-4h-4v2h4v-2Z" style="fill:#3b4f56"/><path d="M164.06,37.11h-2v4h.54V42.9h4v-2h-2.54V39.65l2.43-.73a2.63,2.63,0,0,0-.17-.42h0l0-.05h0a2.56,2.56,0,0,0-1-1l-1.19,2.24V37.11Zm-4,0h-2v4h2v-4Zm-4,0h-2v4h2v-4Zm-4,0h-2v4h2v-4Zm-4,0h-2v4h2v-4Zm-4,0h-2v4h2v-4Zm-4,0h-2v4h2v-4Zm-4,0h-2v4h2v-4Zm-4,0h-2v4h2v-4Zm-4,0h-2v4h2v-4Zm-4,0h-2v4h2v-4Zm-4,0h-2v4h2v-4Zm-4,0h-2v4h2v-4Zm-4,0h-2v4h2v-4Zm-4,0h-2v4h2v-4Zm-4,0h-2v4h2v-4Zm-4,0h-2v2.54h0v1.46h2v-4Zm-3.79.77a2.25,2.25,0,0,0-.4.52h-.08a3.2,3.2,0,0,0-.21.64h0v0h2.52l-1.81-1.77Zm3.27,3.81h-4v2h4v-2Zm0,4h-4v2h4v-2Zm0,4h-4v2h4v-2Zm0,4h-4v2h4v-2Zm0,4h-4v1.63h0s0,.09,0,.14l2.51-.37h0v2.54h.38V59.32h1.08V57.69Zm-1.46,1.63-1.51,2a2.22,2.22,0,0,0,.42.25h1.09V59.32Zm4.38-1.46h-2v4h2v-4Zm4,0h-2v4h2v-4Zm4,0h-2v4h2v-4Zm4,0h-2v4h2v-4Zm4,0h-2v4h2v-4Zm4,0h-2v4h2v-4Zm4,0h-2v4h2v-4Zm4,0h-2v4h2v-4Zm4,0h-2v4h2v-4Zm4,0h-2v4h2v-4Zm4,0h-2v4h2v-4Zm4,0h-2v4h2v-4Zm4,0h-2v4h2v-4Zm4,0h-2v4h2v-4Zm4,0h-2v4h2v-4Zm4,0h-2v4h2v-4Zm1.6,1.46.4,2.51a2.46,2.46,0,0,0,.71-.23h.31l.16-.11h.2a3,3,0,0,0,.28-.33l-2.06-1.48Zm2.54-2.42h-4v2h.89l.57.42L164,58.9h2.6v-2Zm0-4h-4v2h4v-2Zm0-4h-4v2h4v-2Zm0-4h-4v2h4v-2Z" style="fill:#3b4f56"/><line x1="5.81" y1="27.84" x2="181.09" y2="27.84" style="fill:none;stroke:#3b4f56;stroke-miterlimit:10;stroke-width:9px"/><line x1="20.09" y1="15.46" x2="17.99" y2="15.46" style="fill:none;stroke:#3b4f56;stroke-linecap:round;stroke-miterlimit:10;stroke-width:9px"/><line x1="35.04" y1="15.46" x2="32.94" y2="15.46" style="fill:none;stroke:#3b4f56;stroke-linecap:round;stroke-miterlimit:10;stroke-width:9px"/><line x1="49.98" y1="15.46" x2="47.88" y2="15.46" style="fill:none;stroke:#3b4f56;stroke-linecap:round;stroke-miterlimit:10;stroke-width:9px"/></g></g></svg>