<svg xmlns="http://www.w3.org/2000/svg" viewBox="0 0 1920 198"><defs><style>.cls-1{fill:#f8f8f8;}.cls-2{fill:#fefefe;}.cls-3{fill:#3c5057;}</style></defs><title>Asset 1</title><g id="Layer_2" data-name="Layer 2"><g id="Layer_1-2" data-name="Layer 1"><path class="cls-1" d="M1921,126v73H1V79c8.58-1,17.13-2.25,25.74-2.9a376,376,0,0,1,72.34,1c28,3.28,56.2,6,83.81,11.51,50.52,10,100.64,22,151,33,40.22,8.76,80.69,16.38,121.69,20.17,30.3,2.8,60.76,4.08,91.18,5.28,31,1.22,62.08,1.55,92.72-3.33,30.41-4.85,60.69-10.93,90.61-18.2C785.92,111.93,841.5,97.09,898.5,88.94c39.11-5.59,78.34-10.63,117.65-14.62,30.45-3.09,61.07-4.86,91.66-6,43.25-1.62,86.54-2.89,129.82-2.94,65.78-.08,131.55,1.72,197,8.66,28.23,3,56.6,5.52,84.53,10.43,43.88,7.71,87.53,16.84,131.11,26.15,42.37,9,84.58,18.5,128.07,20.69,33.35,1.68,66.6.11,99.85-1.9C1892.5,128.54,1906.74,127.15,1921,126Z" transform="translate(-1 -1)"/><path class="cls-2" d="M1,66V1H1921V113a44.06,44.06,0,0,1-4.92.86q-44.1,2.67-88.2,5.25c-49.72,2.88-98.53-3.71-146.88-14.48-60.83-13.54-121.46-28.16-183.42-35.8-29.36-3.62-58.75-7.13-88.22-9.63-26.19-2.23-52.49-3.71-78.77-4.25-46.59-.94-93.2-1.44-139.8-1.14-34.3.22-68.61,1.58-102.87,3.24-29.75,1.44-59.49,3.46-89.14,6.23Q959.11,67,919.66,73c-29.49,4.51-59,9.27-88.13,15.68-46.07,10.15-91.8,21.86-137.72,32.73-32.57,7.72-65.58,12.7-99.07,13.37-40.14.81-80.3.43-120.28-3.86-24.92-2.68-50-4.8-74.59-9.51-49.95-9.57-99.64-20.49-149.34-31.28C201.74,79.57,153.1,67.86,103.07,65c-25.38-1.47-50.88-1.06-76.33-1.06C18.16,63.89,9.58,65.26,1,66Z" transform="translate(-1 -1)"/><path class="cls-3" d="M1,66c8.58-.74,17.16-2.11,25.74-2.11,25.45,0,51-.41,76.33,1.06,50,2.91,98.67,14.62,147.46,25.22,49.7,10.79,99.39,21.71,149.34,31.28,24.57,4.71,49.67,6.83,74.59,9.51,40,4.29,80.14,4.67,120.28,3.86,33.49-.67,66.5-5.65,99.07-13.37,45.92-10.87,91.65-22.58,137.72-32.73,29.12-6.41,58.64-11.17,88.13-15.68q39.39-6,79.12-9.76c29.65-2.77,59.39-4.79,89.14-6.23,34.26-1.66,68.57-3,102.87-3.24,46.6-.3,93.21.2,139.8,1.14,26.28.54,52.58,2,78.77,4.25,29.47,2.5,58.86,6,88.22,9.63,62,7.64,122.59,22.26,183.42,35.8,48.35,10.77,97.16,17.36,146.88,14.48q44.1-2.56,88.2-5.25A44.06,44.06,0,0,0,1921,113v13c-14.26,1.15-28.5,2.54-42.77,3.4-33.25,2-66.5,3.58-99.85,1.9-43.49-2.19-85.7-11.64-128.07-20.69-43.58-9.31-87.23-18.44-131.11-26.15-27.93-4.91-56.3-7.44-84.53-10.43-65.49-6.94-131.26-8.74-197-8.66-43.28,0-86.57,1.32-129.82,2.94-30.59,1.15-61.21,2.92-91.66,6-39.31,4-78.54,9-117.65,14.62-57,8.15-112.58,23-168.44,36.57-29.92,7.27-60.2,13.35-90.61,18.2-30.64,4.88-61.76,4.55-92.72,3.33-30.42-1.2-60.88-2.48-91.18-5.28-41-3.79-81.47-11.41-121.69-20.17-50.33-11-100.45-23-151-33-27.61-5.48-55.8-8.23-83.81-11.51a376,376,0,0,0-72.34-1C18.13,76.75,9.58,78,1,79Z" transform="translate(-1 -1)"/></g></g></svg>