<?xml version="1.0" encoding="utf-8"?>
<!-- Generator: Adobe Illustrator 23.0.3, SVG Export Plug-In . SVG Version: 6.00 Build 0)  -->
<svg version="1.1" id="Layer_1" xmlns="http://www.w3.org/2000/svg" xmlns:xlink="http://www.w3.org/1999/xlink" x="0px" y="0px"
	 viewBox="0 0 1920 1080" style="enable-background:new 0 0 1920 1080;" xml:space="preserve">
<style type="text/css">
	.st0{fill:#F8F8F8;}
	.st1{fill:#3B5EE8;}
	.st2{fill:#3A4F57;}
</style>
<g>
	<g>
		<path class="st0" d="M2201,553c0,191,0,382,0,573c-826.67,0-1653.33,0-2480,0c0-193.67,0-387.33,0-581
			c1.4-0.44,2.95-0.64,4.18-1.37c31.91-19.04,64.87-35.97,99.21-50.2c48.08-19.93,98-33.29,149.33-41.25
			c21.3-3.3,42.84-5.26,64.33-7.02c19.54-1.6,39.16-2.76,58.75-2.92c30.77-0.25,61.54,0.5,92.31,0.83c0.67,0.01,1.33,0.02,2,0.06
			c14.49,0.95,28.98,1.94,43.47,2.86c8.6,0.54,17.22,0.78,25.81,1.5c11.67,0.99,23.3,2.37,34.95,3.49
			c16.28,1.57,32.58,2.84,48.83,4.65c16.55,1.85,33.05,4.21,49.57,6.32c14.77,1.89,29.57,3.57,44.31,5.65
			c13.6,1.92,27.13,4.31,40.71,6.38c17.1,2.6,34.27,4.81,51.33,7.68c33.04,5.56,66.05,11.36,99.03,17.28
			c33.63,6.03,67.26,12.04,100.79,18.58c46.38,9.04,92.62,18.8,139.01,27.78c34.79,6.73,69.68,12.95,104.6,18.95
			c18.2,3.13,36.52,5.67,54.86,7.8c33.83,3.92,67.7,7.63,101.6,10.83c17.93,1.69,35.97,2.95,53.96,2.96
			c40.39,0.02,80.82,1.7,121.16-1.73c19.93-1.7,39.89-3.03,59.78-5.15c17.72-1.89,35.55-3.63,52.97-7.21
			c32.13-6.6,64.33-13.29,95.9-22.11c74.85-20.89,143.9-53.65,203.8-104.1c1.41-1.19,3.57-2.37,5.24-2.2
			c6.54,0.67,13.2,1.26,19.5,3.01c29.96,8.35,59.78,17.21,89.73,25.63c63.59,17.87,127.86,32.98,192.44,46.76
			c36.07,7.69,72.21,15.01,108.4,22.1C2155.53,545.26,2178.3,548.97,2201,553z"/>
		<path class="st1" d="M-279,528c0-190.67,0-381.33,0-572c826.67,0,1653.33,0,2480,0c0,193.67,0,387.33,0,581
			c-1.33-0.05-2.68,0.07-3.98-0.17c-21.05-3.89-42.15-7.55-63.13-11.81c-53.54-10.88-107.26-21.04-160.48-33.34
			c-52.92-12.24-105.38-26.55-157.93-40.34c-25.88-6.79-51.48-14.64-77.33-21.6c-11.49-3.09-22.66-3.64-32.75,5.4
			c-22.26,19.94-47.3,36.02-73.44,50.32c-47.71,26.11-98.46,44.44-151.12,57.61c-58.17,14.55-117.39,22.12-177.14,25.8
			c-19.25,1.18-38.57,1.89-57.85,1.88c-23.45-0.01-46.93-0.59-70.35-1.68c-26.21-1.22-52.4-3.08-78.57-5.07
			c-17.54-1.34-35.07-2.99-52.51-5.22c-24.84-3.18-49.68-6.5-74.36-10.72c-38.11-6.51-76.14-13.54-114.1-20.89
			c-52.16-10.11-104.15-21.08-156.34-31.01c-45.15-8.6-90.44-16.55-135.75-24.26c-38.92-6.63-77.9-12.94-116.96-18.6
			c-36.28-5.26-72.67-9.84-109.09-14.01c-28.52-3.27-57.14-5.77-85.76-8.03c-22.85-1.81-45.76-3.05-68.67-3.99
			c-19.76-0.82-39.55-0.99-59.33-1.19c-6.94-0.07-13.89,0.66-20.84,0.92c-17.94,0.68-35.94,0.66-53.82,2.12
			c-25.12,2.05-50.22,4.69-75.22,7.96c-35.99,4.7-71.2,13.19-105.8,24.13c-37.05,11.72-72.83,26.5-107.15,44.75
			C-252.27,513.12-265.59,520.64-279,528z"/>
		<path class="st2" d="M-279,528c13.41-7.36,26.73-14.88,40.24-22.06c34.31-18.25,70.1-33.04,107.15-44.75
			c34.6-10.94,69.81-19.43,105.8-24.13c24.99-3.26,50.09-5.91,75.22-7.96c17.88-1.46,35.88-1.43,53.82-2.12
			c6.95-0.26,13.9-1,20.84-0.92c19.78,0.21,39.57,0.38,59.33,1.19c22.91,0.95,45.82,2.18,68.67,3.99
			c28.62,2.27,57.24,4.76,85.76,8.03c36.42,4.17,72.81,8.76,109.09,14.01c39.07,5.66,78.05,11.98,116.96,18.6
			c45.31,7.71,90.6,15.67,135.75,24.26c52.19,9.94,104.18,20.91,156.34,31.01c37.96,7.35,75.99,14.38,114.1,20.89
			c24.68,4.22,49.52,7.53,74.36,10.72c17.44,2.23,34.97,3.89,52.51,5.22c26.17,1.99,52.36,3.85,78.57,5.07
			c23.43,1.09,46.9,1.67,70.35,1.68c19.29,0.01,38.6-0.69,57.85-1.88c59.75-3.68,118.97-11.25,177.14-25.8
			c52.66-13.17,103.41-31.5,151.12-57.61c26.13-14.3,51.18-30.38,73.44-50.32c10.09-9.04,21.26-8.49,32.75-5.4
			c25.84,6.95,51.44,14.81,77.33,21.6c52.56,13.78,105.01,28.1,157.93,40.34c53.22,12.31,106.93,22.47,160.48,33.34
			c20.98,4.26,42.08,7.92,63.13,11.81c1.29,0.24,2.65,0.12,3.98,0.17c0,5.33,0,10.67,0,16c-22.7-4.03-45.47-7.74-68.1-12.17
			c-36.19-7.09-72.34-14.41-108.4-22.1c-64.58-13.77-128.85-28.89-192.44-46.76c-29.94-8.41-59.76-17.28-89.73-25.63
			c-6.3-1.76-12.96-2.34-19.5-3.01c-1.67-0.17-3.83,1.01-5.24,2.2c-59.89,50.45-128.95,83.21-203.8,104.1
			c-31.57,8.81-63.77,15.5-95.9,22.11c-17.42,3.58-35.25,5.32-52.97,7.21c-19.88,2.12-39.85,3.45-59.78,5.15
			c-40.34,3.44-80.77,1.76-121.16,1.73c-17.99-0.01-36.04-1.27-53.96-2.96c-33.91-3.2-67.77-6.92-101.6-10.83
			c-18.34-2.12-36.66-4.67-54.86-7.8c-34.92-6-69.82-12.22-104.6-18.95c-46.39-8.98-92.63-18.74-139.01-27.78
			c-33.53-6.53-67.17-12.54-100.79-18.58c-32.98-5.92-65.99-11.71-99.03-17.28c-17.06-2.87-34.22-5.08-51.33-7.68
			c-13.58-2.07-27.11-4.46-40.71-6.38c-14.74-2.08-29.54-3.76-44.31-5.65c-16.52-2.11-33.02-4.47-49.57-6.32
			c-16.25-1.81-32.56-3.08-48.83-4.65c-11.65-1.12-23.29-2.5-34.95-3.49c-8.58-0.73-17.21-0.96-25.81-1.5
			c-14.49-0.92-28.98-1.9-43.47-2.86c-0.66-0.04-1.33-0.05-2-0.06c-30.77-0.33-61.55-1.08-92.31-0.83
			c-19.59,0.16-39.21,1.32-58.75,2.92c-21.5,1.76-43.03,3.71-64.33,7.02c-51.33,7.96-101.25,21.33-149.33,41.25
			c-34.35,14.23-67.3,31.16-99.21,50.2c-1.23,0.73-2.78,0.92-4.18,1.37C-279,539.33-279,533.67-279,528z"/>
	</g>
</g>
</svg>
