<svg width="900" height="174" xmlns="http://www.w3.org/2000/svg">
 <style type="text/css">.st0{fill:#0069ff;}
	.st1{fill-rule:evenodd;clip-rule:evenodd;fill:#0069ff;}</style>

 <g>
  <title>background</title>
  <rect fill="none" id="canvas_background" height="176" width="902" y="-1" x="-1"/>
 </g>
 <g>
  <title>Layer 1</title>
  <g id="XMLID_2369_">
   <g id="XMLID_2638_">
    <g id="XMLID_2639_">
     <g id="svg_1">
      <g id="XMLID_44_">
       <g id="XMLID_48_">
        <path d="m200.6,145.596872l0,-19.6c20.8,0 36.8,-20.6 28.9,-42.4c-3,-8.1 -9.4,-14.6 -17.5,-17.5c-21.8,-7.9 -42.4,8.1 -42.4,28.9c0,0 0,0 0,0l-19.6,0c0,-33.1 32,-58.9 66.7,-48.1c15.2,4.7 27.2,16.8 31.9,31.9c10.8,34.8 -14.9,66.8 -48,66.8z" class="st0" id="XMLID_49_"/>
       </g>
       <polygon points="200.60000610351562,125.99687194824219 181.10000610351562,125.99687194824219 181.10000610351562,106.49687194824219 181.10000610351562,106.49687194824219 200.60000610351562,106.49687194824219 200.60000610351562,106.49687194824219 " class="st1" id="XMLID_47_"/>
       <polygon points="181.10000610351562,140.9968719482422 166.10000610351562,140.9968719482422 166.10000610351562,140.9968719482422 166.10000610351562,125.99687194824219 181.10000610351562,125.99687194824219 181.10000610351562,140.9968719482422 " class="st1" id="XMLID_46_"/>
       <polygon points="166.10000610351562,125.99687194824219 153.5,125.99687194824219 153.5,125.99687194824219 153.5,113.49687194824219 153.5,113.49687194824219 166.10000610351562,113.49687194824219 166.10000610351562,113.49687194824219 " class="st1" id="XMLID_45_"/>
      </g>
     </g>
    </g>
   </g>
   <g id="XMLID_2370_">
    <path d="m330,73.696872c-5.8,-4 -13,-6.1 -21.4,-6.1l-18.3,0l0,58.1l18.3,0c8.4,0 15.6,-2.1 21.4,-6.4c3.2,-2.2 5.7,-5.4 7.4,-9.3c1.7,-3.9 2.6,-8.5 2.6,-13.7c0,-5.1 -0.9,-9.7 -2.6,-13.6c-1.7,-3.8 -4.2,-6.9 -7.4,-9zm-29,3.8l5.8,0c6.4,0 11.7,1.3 15.7,3.7c4.4,2.7 6.7,7.8 6.7,15.1c0,7.6 -2.3,12.9 -6.7,15.8l0,0c-3.8,2.5 -9.1,3.8 -15.6,3.8l-5.8,0l0,-38.4l-0.1,0z" class="st0" id="XMLID_2635_"/>
    <path d="m352.8,66.896872c-1.8,0 -3.3,0.6 -4.5,1.8c-1.2,1.2 -1.9,2.7 -1.9,4.4c0,1.8 0.6,3.3 1.9,4.5c1.2,1.2 2.7,1.9 4.5,1.9c1.8,0 3.3,-0.6 4.5,-1.9c1.2,-1.2 1.9,-2.8 1.9,-4.5c0,-1.8 -0.6,-3.3 -1.9,-4.4c-1.2,-1.2 -2.8,-1.8 -4.5,-1.8z" class="st0" id="XMLID_2634_"/>
    <rect height="41" width="10.3" class="st0" y="84.796872" x="347.5" id="XMLID_2564_"/>
    <path d="m395.3,88.196872c-3.1,-2.8 -6.6,-4.4 -10.3,-4.4c-5.7,0 -10.4,2 -14.1,5.8c-3.7,3.8 -5.5,8.8 -5.5,14.7c0,5.8 1.8,10.7 5.5,14.7c3.7,3.8 8.4,5.8 14.1,5.8c4,0 7.4,-1.1 10.2,-3.3l0,1c0,3.4 -0.9,6 -2.7,7.9c-1.8,1.8 -4.3,2.7 -7.4,2.7c-4.8,0 -7.7,-1.9 -11.4,-6.8l-7,6.7l0.2,0.3c1.5,2.1 3.8,4.2 6.9,6.2c3.1,2 6.9,3 11.5,3c6.1,0 11.1,-1.9 14.7,-5.6c3.7,-3.7 5.5,-8.7 5.5,-14.9l0,-37.2l-10.1,0l0,3.4l-0.1,0zm-2.7,24.2c-1.8,2 -4.1,3 -7.1,3c-3,0 -5.3,-1 -7,-3c-1.8,-2 -2.7,-4.7 -2.7,-8c0,-3.3 0.9,-6.1 2.7,-8.1c1.8,-2 4.1,-3.1 7,-3.1c3,0 5.3,1 7.1,3.1c1.8,2 2.7,4.8 2.7,8.1c0,3.3 -1,6 -2.7,8z" class="st0" id="XMLID_2561_"/>
    <rect height="41" width="10.3" class="st0" y="84.796872" x="414.2" id="XMLID_2560_"/>
    <path d="m419.5,66.896872c-1.8,0 -3.3,0.6 -4.5,1.8c-1.2,1.2 -1.9,2.7 -1.9,4.4c0,1.8 0.6,3.3 1.9,4.5c1.2,1.2 2.7,1.9 4.5,1.9c1.8,0 3.3,-0.6 4.5,-1.9c1.2,-1.2 1.9,-2.8 1.9,-4.5c0,-1.8 -0.6,-3.3 -1.9,-4.4c-1.2,-1.2 -2.8,-1.8 -4.5,-1.8z" class="st0" id="XMLID_2552_"/>
    <path d="m447.1,73.796872l-10.1,0l0,11.1l-5.9,0l0,9.4l5.9,0l0,17c0,5.3 1.1,9.1 3.2,11.3c2.1,2.2 5.8,3.3 11.1,3.3c1.7,0 3.4,-0.1 5,-0.2l0.5,0l0,-9.4l-3.5,0.2c-2.5,0 -4.1,-0.4 -4.9,-1.3c-0.8,-0.9 -1.2,-2.7 -1.2,-5.4l0,-15.6l9.6,0l0,-9.4l-9.6,0l0,-11l-0.1,0z" class="st0" id="XMLID_2509_"/>
    <rect height="58.1" width="10.3" class="st0" y="67.596872" x="505" id="XMLID_2508_"/>
    <path d="m619.4,111.096872c-1.8,2.1 -3.7,3.9 -5.2,4.8l0,0c-1.4,0.9 -3.2,1.4 -5.3,1.4c-3,0 -5.5,-1.1 -7.5,-3.4c-2,-2.3 -3,-5.2 -3,-8.7s1,-6.4 2.9,-8.6c2,-2.3 4.4,-3.4 7.4,-3.4c3.3,0 6.8,2.1 9.8,5.6l6.8,-6.5l0,0c-4.4,-5.8 -10.1,-8.5 -16.9,-8.5c-5.7,0 -10.6,2.1 -14.6,6.1c-4,4 -6,9.2 -6,15.3s2,11.2 6,15.3c4,4.1 8.9,6.1 14.6,6.1c7.5,0 13.5,-3.2 17.5,-9.1l-6.5,-6.4z" class="st0" id="XMLID_2470_"/>
    <path d="m661.7,90.496872c-1.5,-2 -3.5,-3.7 -5.9,-4.9c-2.5,-1.2 -5.3,-1.8 -8.5,-1.8c-5.8,0 -10.5,2.1 -14,6.3c-3.4,4.2 -5.2,9.3 -5.2,15.4c0,6.2 1.9,11.3 5.7,15.3c3.7,3.9 8.8,5.9 14.9,5.9c6.9,0 12.7,-2.8 16.9,-8.4l0.2,-0.3l-6.7,-6.5l0,0c-0.6,0.8 -1.5,1.6 -2.3,2.4c-1,1 -2,1.7 -3,2.2c-1.5,0.8 -3.3,1.1 -5.2,1.1c-2.9,0 -5.2,-0.8 -7,-2.5c-1.7,-1.5 -2.7,-3.6 -2.9,-6.2l27.3,0l0.1,-3.8c0,-2.7 -0.4,-5.2 -1.1,-7.6c-0.7,-2.3 -1.8,-4.5 -3.3,-6.6zm-22.5,9.7c0.5,-2 1.4,-3.6 2.7,-4.9c1.4,-1.4 3.2,-2.1 5.4,-2.1c2.5,0 4.4,0.7 5.7,2.1c1.2,1.3 1.9,2.9 2.1,4.8l-15.9,0l0,0.1z" class="st0" id="XMLID_2460_"/>
    <path d="m701.3,87.896872l0,0c-3.1,-2.7 -7.4,-4 -12.8,-4c-3.4,0 -6.6,0.8 -9.5,2.2c-2.7,1.4 -5.3,3.6 -7,6.6l0.1,0.1l6.6,6.3c2.7,-4.3 5.7,-5.8 9.7,-5.8c2.2,0 3.9,0.6 5.3,1.7c1.4,1.1 2,2.6 2,4.4l0,2c-2.6,-0.8 -5.1,-1.2 -7.6,-1.2c-5.1,0 -9.3,1.2 -12.4,3.6c-3.1,2.4 -4.7,5.9 -4.7,10.2c0,3.8 1.3,7 4,9.3c2.7,2.2 6,3.4 9.9,3.4c3.9,0 7.6,-1.6 10.9,-4.3l0,3.4l10.1,0l0,-26.4c0.2,-4.9 -1.4,-8.8 -4.6,-11.5zm-18.3,22.2c1.2,-0.8 2.8,-1.2 4.9,-1.2c2.5,0 5.1,0.5 7.8,1.5l0,4c-2.2,2.1 -5.2,3.1 -8.9,3.1c-1.8,0 -3.2,-0.4 -4.1,-1.2c-0.9,-0.8 -1.4,-1.7 -1.4,-3c0,-1.3 0.6,-2.4 1.7,-3.2z" class="st0" id="XMLID_2456_"/>
    <path d="m745.7,88.696872c-2.9,-3.2 -6.9,-4.8 -12,-4.8c-4.1,0 -7.4,1.2 -9.9,3.5l0,-2.5l-10.1,0l0,41l10.3,0l0,-22.7c0,-3.1 0.7,-5.6 2.2,-7.3c1.5,-1.8 3.4,-2.6 6.1,-2.6c2.3,0 4.1,0.8 5.4,2.3c1.3,1.6 2,3.7 2,6.4l0,23.7l10.3,0l0,-23.7c0,-5.6 -1.4,-10.1 -4.3,-13.3z" class="st0" id="XMLID_2454_"/>
    <path d="m492.1,87.896872l0,0c-3.1,-2.7 -7.4,-4 -12.8,-4c-3.4,0 -6.6,0.8 -9.5,2.2c-2.7,1.4 -5.3,3.6 -7,6.6l0.1,0.1l6.6,6.3c2.7,-4.3 5.7,-5.8 9.7,-5.8c2.2,0 3.9,0.6 5.3,1.7c1.4,1.1 2,2.6 2,4.4l0,2c-2.6,-0.8 -5.1,-1.2 -7.6,-1.2c-5.1,0 -9.3,1.2 -12.4,3.6c-3.1,2.4 -4.7,5.9 -4.7,10.2c0,3.8 1.3,7 4,9.3c2.7,2.2 6,3.4 9.9,3.4c3.9,0 7.6,-1.6 10.9,-4.3l0,3.4l10.1,0l0,-26.4c0.1,-4.9 -1.5,-8.8 -4.6,-11.5zm-18.3,22.2c1.2,-0.8 2.8,-1.2 4.9,-1.2c2.5,0 5.1,0.5 7.8,1.5l0,4c-2.2,2.1 -5.2,3.1 -8.9,3.1c-1.8,0 -3.2,-0.4 -4.1,-1.2c-0.9,-0.8 -1.4,-1.7 -1.4,-3c0,-1.3 0.5,-2.4 1.7,-3.2z" class="st0" id="XMLID_2450_"/>
    <path d="m552.7,126.596872c-16.5,0 -30,-13.4 -30,-30s13.4,-30 30,-30c16.5,0 30,13.4 30,30s-13.5,30 -30,30zm0,-49.3c-10.7,0 -19.4,8.7 -19.4,19.4s8.7,19.4 19.4,19.4c10.7,0 19.4,-8.7 19.4,-19.4s-8.7,-19.4 -19.4,-19.4z" class="st0" id="XMLID_2371_"/>
   </g>
  </g>
 </g>
</svg>