<svg xmlns="http://www.w3.org/2000/svg" viewBox="0 0 288.33 66.79"><defs><style>.cls-1{fill:#13181e;}.cls-2{fill:#ee3424;}.cls-3{fill:#af1f23;}</style></defs><title>Artboard 1</title><g id="text"><polyline class="cls-1" points="145.33 30.06 153.68 17.67 167.29 17.67 155.21 35.57 167.67 54.3 154.07 54.3 145.33 41.1 145.33 54.3 134.03 54.3 134.03 1.85 145.33 1.85 145.33 30.06"/><path class="cls-1" d="M286.7,29.06V54.29H275.42v-25a4.63,4.63,0,0,0-9.25,0v25H254.89V1.85h11.28v17A12.82,12.82,0,0,1,286.7,29.06Z"/><path class="cls-1" d="M116.47,17.67v1.81a19.63,19.63,0,1,0,0,33v1.91h11.28V17.67Zm-9,27.86a10,10,0,1,1,10-10A10,10,0,0,1,107.49,45.53Z"/><path class="cls-1" d="M197.93,17.67v1.81a19.63,19.63,0,1,0,0,33v1.91H209.2V17.67Zm-9,27.86a10,10,0,1,1,10-10A10,10,0,0,1,189,45.53Z"/><path class="cls-1" d="M225.67,42.44a3.85,3.85,0,0,0,.59,1.91,4.18,4.18,0,0,0,1.4,1.31,6.93,6.93,0,0,0,2.12.8,12.78,12.78,0,0,0,2.64.27,9,9,0,0,0,4.56-.91,2,2,0,0,0,1.2-1.77,1.64,1.64,0,0,0-.2-.83,2.47,2.47,0,0,0-.91-.75,11.66,11.66,0,0,0-2.34-.89c-1-.3-2.37-.6-4-.9a41.83,41.83,0,0,1-5.92-1.62,19.69,19.69,0,0,1-4.74-2.44,11.66,11.66,0,0,1-3.22-3.45,9,9,0,0,1-1.21-4.65,10.22,10.22,0,0,1,1.19-4.78,12,12,0,0,1,3.38-3.93,16.63,16.63,0,0,1,5.19-2.61,22.6,22.6,0,0,1,6.77-.95,25.23,25.23,0,0,1,7.05.93,16.91,16.91,0,0,1,5.41,2.6,11.79,11.79,0,0,1,3.51,4.06A11.17,11.17,0,0,1,249.38,29H237.79a3.16,3.16,0,0,0-1.25-2.56,6.85,6.85,0,0,0-4.35-1.12,7.31,7.31,0,0,0-4.14.93,2.22,2.22,0,0,0-1.12,1.86,1.93,1.93,0,0,0,.21.93,2,2,0,0,0,.74.74,8,8,0,0,0,2,.85,25,25,0,0,0,3.52.74,50.4,50.4,0,0,1,6.18,1.39,20,20,0,0,1,5.1,2.27,11.3,11.3,0,0,1,3.53,3.56,9.62,9.62,0,0,1,1.32,5.07,9.91,9.91,0,0,1-1.3,5,11.85,11.85,0,0,1-3.6,3.85,17.65,17.65,0,0,1-5.44,2.43,26.42,26.42,0,0,1-7,.86,23.05,23.05,0,0,1-7.5-1.13,17.73,17.73,0,0,1-5.55-3,13.05,13.05,0,0,1-3.47-4.26,11,11,0,0,1-1.2-4.88Z"/></g><g id="icon"><polygon class="cls-2" points="61.96 64.93 74.08 43.91 49.82 1.86 25.56 1.86 61.96 64.93"/><polygon class="cls-3" points="49.83 43.91 61.95 64.93 37.7 64.93 25.56 43.91 49.83 43.91"/><polygon class="cls-2" points="13.43 22.88 37.69 22.88 13.44 64.93 1.3 43.91 13.43 22.88"/></g></svg>