<?xml version="1.0" encoding="utf-8"?>
<!-- Generator: Adobe Illustrator 21.1.0, SVG Export Plug-In . SVG Version: 6.00 Build 0)  -->
<svg version="1.1" id="Layer_1" xmlns="http://www.w3.org/2000/svg" xmlns:xlink="http://www.w3.org/1999/xlink" x="0px" y="0px"
	 viewBox="0 0 198.5 59.5" style="enable-background:new 0 0 198.5 59.5;" xml:space="preserve">
<style type="text/css">
	.st0{fill:none;stroke:#50A0D1;stroke-width:0.25;stroke-miterlimit:10;}
	.st1{fill:#00B0AB;}
	.st2{fill:#0B1F2D;}
</style>
<g>
	<path class="st0" d="M183.5,26.5"/>
	<polygon class="st1" points="190.4,9.6 166.8,9.6 166.8,0.5 198.1,0.5 	"/>
	<polygon class="st2" points="151.7,0.5 151.1,0.5 140.6,18.7 130.4,0.5 129.9,0.5 120.8,0.5 120.8,41.3 129.9,41.3 129.9,17.3 
		135.6,27.9 145.9,27.9 151.7,17.3 151.7,41.3 160.8,41.3 160.8,0.5 	"/>
	<polygon class="st2" points="26.8,9.6 34.4,0.5 0.3,0.5 0.3,9.6 0.3,18.7 0.3,27.8 0.3,41.3 9.4,41.3 9.4,27.8 26.8,27.8 
		26.8,18.7 9.4,18.7 9.4,9.6 	"/>
	<path class="st2" d="M54.3,0.2c-11.5,0-20.7,9.3-20.7,20.7s9.3,20.7,20.7,20.7s20.7-9.4,20.7-20.8C75.1,9.5,65.8,0.2,54.3,0.2z
		 M54.3,31.8c-6.3,0-11.4-5.1-11.4-11.4S48,9.1,54.3,9.1s11.4,5.1,11.4,11.4S60.6,31.8,54.3,31.8z"/>
	<path class="st2" d="M112.7,22.6c1.2-1.7,1.9-3.8,2.1-6.3c0.1-1,0.1-1.9,0-3c-0.3-4.1-1.1-6.5-3.5-9.3c-2.7-2.9-5.6-3.4-9.2-3.5
		H89.7h-9.1v40.7h9.1l0,0V27.9h7.5l7,13.4h10.6l-8.5-14.4C109,26,111.3,24.7,112.7,22.6z M100.8,19.2H89.6V9.3h10.8
		c0.1,0,0.8,0,0.8,0c2.5,0.3,4.4,2.4,4.4,5C105.5,16.9,103.4,19.1,100.8,19.2z"/>
	<path class="st1" d="M182.6,10c-0.1,0-0.1,0-0.2,0s-0.1,0-0.2,0H182.6z"/>
	<path class="st1" d="M188.8,11.6l-5.9,7.1c3.7,0.2,6.6,3.2,6.6,7c0,3.9-3.2,7-7,7c-3.1,0-5.7-2-6.7-4.8h-8.9
		c1,7.7,7.5,13.8,15.6,13.8c8.7,0,15.7-7.1,15.7-15.7C198.1,19.5,194.2,13.9,188.8,11.6z"/>
	<g>
		<path class="st2" d="M5.9,55.2H1.7v3.8H0.3v-8.7h6.2v1H1.7v3h4.2V55.2z"/>
		<path class="st2" d="M12.4,59.1H11v-8.7h1.3V59.1z"/>
		<path class="st2" d="M25.4,59.1H24l-5-6.7v6.7h-1.3v-8.7h1.3l5.1,6.7v-6.7h1.3L25.4,59.1L25.4,59.1z"/>
		<path class="st2" d="M36.3,56.8h-4.2l-1,2.3h-1.3l3.8-8.7h1.1l3.8,8.7h-1.3L36.3,56.8z M32.4,55.8h3.3l-1.7-4.1L32.4,55.8z"/>
		<path class="st2" d="M50.4,59.1h-1.3l-5-6.7v6.7h-1.3v-8.7h1.3l5.1,6.7v-6.7h1.3L50.4,59.1L50.4,59.1z"/>
		<path class="st2" d="M62.9,56.3c-0.1,1-0.5,1.6-1.1,2.1c-0.7,0.5-1.5,0.8-2.6,0.8c-1.1,0-2.1-0.4-2.9-1.1c-0.7-0.8-1.1-1.7-1.1-3
			v-0.8c0-0.8,0.2-1.5,0.5-2.1c0.3-0.6,0.8-1.1,1.4-1.4c0.6-0.3,1.3-0.5,2.1-0.5c1.1,0,1.9,0.3,2.6,0.8c0.7,0.5,1.1,1.2,1.1,2.1
			h-1.3c-0.1-0.7-0.4-1.2-0.8-1.5c-0.4-0.3-1-0.5-1.6-0.5c-0.9,0-1.5,0.3-2,0.9c-0.5,0.6-0.7,1.3-0.7,2.3v0.9c0,1,0.2,1.7,0.7,2.3
			c0.5,0.6,1.1,0.9,1.9,0.9c0.8,0,1.2-0.2,1.7-0.5c0.4-0.3,0.7-0.8,0.8-1.5L62.9,56.3L62.9,56.3z"/>
		<path class="st2" d="M69,59.1h-1.3v-8.7H69V59.1z"/>
		<path class="st2" d="M80,56.8h-4.2l-1,2.3h-1.3l3.8-8.7h1.1l3.8,8.7H81L80,56.8z M76.2,55.8h3.3l-1.7-4.1L76.2,55.8z"/>
		<path class="st2" d="M87.9,58.1h4.7v1h-6v-8.7h1.3V58.1z"/>
		<path class="st2" d="M114.3,56.3c-0.1,1-0.5,1.6-1.1,2.1c-0.7,0.5-1.5,0.8-2.6,0.8c-1.1,0-2.1-0.4-2.9-1.1c-0.7-0.8-1.1-1.7-1.1-3
			v-0.8c0-0.8,0.2-1.5,0.5-2.1c0.3-0.6,0.8-1.1,1.4-1.4c0.6-0.3,1.3-0.5,2.1-0.5c1.1,0,1.9,0.3,2.6,0.8c0.7,0.5,1.1,1.2,1.1,2.1
			h-1.3c-0.1-0.7-0.4-1.2-0.8-1.5c-0.4-0.3-1-0.5-1.6-0.5c-0.9,0-1.5,0.3-2,0.9c-0.5,0.6-0.7,1.3-0.7,2.3v0.9c0,1,0.2,1.7,0.7,2.3
			s1.1,0.9,1.9,0.9c0.8,0,1.2-0.2,1.7-0.5c0.4-0.3,0.7-0.8,0.8-1.5L114.3,56.3L114.3,56.3z"/>
		<path class="st2" d="M120.4,58.1h4.7v1h-6v-8.7h1.3V58.1z"/>
		<path class="st2" d="M136.7,55c0,0.9-0.2,1.6-0.5,2.2c-0.3,0.7-0.8,1.1-1.4,1.4c-0.6,0.4-1.3,0.5-2.1,0.5c-0.8,0-1.4-0.2-2.1-0.5
			c-0.6-0.4-1.1-0.9-1.4-1.4c-0.4-0.7-0.5-1.3-0.5-2.2v-0.7c0-0.9,0.2-1.5,0.5-2.2c0.3-0.7,0.8-1.1,1.4-1.4c0.6-0.4,1.3-0.5,2.1-0.5
			c0.8,0,1.5,0.2,2.1,0.5c0.6,0.3,1.1,0.9,1.4,1.4c0.3,0.7,0.5,1.3,0.5,2.2V55z M135.4,54.5c0-1.1-0.2-1.8-0.7-2.4s-1.1-0.9-2-0.9
			s-1.5,0.3-2,0.9c-0.5,0.6-0.8,1.3-0.8,2.3V55c0,1,0.3,1.8,0.8,2.4c0.5,0.6,1.1,0.9,2,0.9c0.9,0,1.5-0.3,2-0.8
			c0.5-0.6,0.7-1.3,0.8-2.3L135.4,54.5L135.4,54.5z"/>
		<path class="st2" d="M148.5,50.4v5.9c0,0.9-0.3,1.5-0.9,2c-0.6,0.5-1.3,0.9-2.4,0.9h-0.4c-1.1,0-1.9-0.3-2.6-0.8
			c-0.7-0.5-1-1.2-1-2.1v-5.9h1.3v5.9c0,0.7,0.2,1.1,0.6,1.4c0.4,0.4,1,0.5,1.7,0.5s1.3-0.2,1.7-0.5c0.4-0.3,0.6-0.9,0.6-1.4v-5.9
			H148.5z"/>
		<path class="st2" d="M153.5,59.1v-8.7h2.8c0.9,0,1.6,0.2,2.3,0.5c0.7,0.4,1.1,0.8,1.5,1.4c0.4,0.6,0.6,1.3,0.6,2.1v0.6
			c0,0.9-0.2,1.5-0.6,2.2c-0.4,0.7-0.9,1.1-1.5,1.4c-0.7,0.3-1.4,0.5-2.4,0.5H153.5z M154.9,51.3v6.8h1.3c1.1,0,1.8-0.3,2.4-0.9
			c0.6-0.6,0.9-1.3,0.9-2.4v-0.5c0-1-0.3-1.7-0.8-2.3c-0.6-0.6-1.2-0.9-2.3-0.9L154.9,51.3L154.9,51.3z"/>
	</g>
</g>
</svg>
