<svg class="kasten-logo" version="1.1" id="Layer_1" xmlns="http://www.w3.org/2000/svg" xmlns:xlink="http://www.w3.org/1999/xlink" x="0px" y="0px" viewBox="0 0 145 50" style="enable-background:new 0 0 145 50;" xml:space="preserve">
    <style type="text/css">
      .st0{fill:#446CA9;}
      .st1{fill:#46A8C6;}
      .st2{fill:#4D72A5;}
      .st3{fill:#939598;}
    </style>
    <path class="st0" d="M8.8,35H5.9c-1,0-1.9-0.9-1.9-1.9V4.9C4,3.9,4.8,3,5.9,3h2.9c1,0,1.9,0.8,1.9,1.9v28.2C10.6,34.2,9.8,35,8.8,35
      z"></path>
    <path class="st1" d="M34.6,9.8l5.2,9.1h7.3c0-0.4-0.2-0.9-0.4-1.3L39.3,4.7c-0.6-1-1.6-1.5-2.7-1.5H21.8c-0.4,0-0.9,0.1-1.3,0.3
      L24,9.8L34.6,9.8L34.6,9.8L34.6,9.8z"></path>
    <path class="st1" d="M34.6,28.5H24l-3.6,6.3c0.4,0.2,0.9,0.3,1.3,0.3h14.9c1.1,0,2.1-0.6,2.7-1.5l7.4-12.9c0.2-0.4,0.4-0.9,0.4-1.3
      h-7.2L34.6,28.5z"></path>
    <path class="st0" d="M18.4,19.2l5.2-9.1L20,3.7c-0.4,0.3-0.7,0.6-0.9,1l-7.4,12.9c-0.6,1-0.6,2.1,0,3.1L19,33.6
      c0.2,0.4,0.6,0.7,0.9,1l3.6-6.3L18.4,19.2z"></path>
    <path class="st2" d="M65.1,28.1c0.3,0.3,0.1,0.4-0.1,0.4h-1.7c-0.3,0-0.4-0.1-0.7-0.4L56.3,22v6.1c0,0.3-0.1,0.4-0.4,0.4h-1.1
      c-0.3,0-0.4-0.1-0.4-0.4V9.8c0-0.3,0.1-0.4,0.4-0.4h1.1c0.3,0,0.4,0.1,0.4,0.4v11.3l6-5.4c0.3-0.3,0.4-0.4,0.7-0.4h1.6
      c0.3,0,0.3,0.2,0.1,0.4l-6.5,5.8L65.1,28.1z"></path>
    <path class="st2" d="M70.3,16.8L70.1,16c-0.1-0.3,0-0.4,0.3-0.5c0.3-0.1,2.4-0.4,4.4-0.4c4.4,0,5.5,1.9,5.5,6.2v6.8
      c0,0.3-0.1,0.4-0.4,0.4h-0.7c-0.2,0-0.3-0.1-0.4-0.4l-0.1-1.8c-0.7,1-2.4,2.4-5.2,2.4c-2.5,0-4.6-1.5-4.6-4.3c0-2.8,2.1-4.1,5.3-4.1
      c1.4,0,2.9,0.4,4.1,0.9c0-3.3-1-4.4-3.7-4.4c-1.7,0-3,0.2-4,0.4C70.4,17.3,70.3,17.2,70.3,16.8z M70.9,24.5c0,1.6,1.1,2.8,3.3,2.8
      c1.8,0,3.5-1.2,4.3-2.4v-2.1c-1.3-0.6-2.3-0.9-3.8-0.9C72.1,21.8,70.9,22.7,70.9,24.5z"></path>
    <path class="st2" d="M93.5,24.8c0-1.1-1.3-1.7-3.7-2.1c-2.6-0.3-5-0.9-5-3.7c0-2.4,1.9-4,5-4c1.3,0,3.1,0.3,5,1.4
      c0.3,0.2,0.3,0.3,0.1,0.6l-0.3,0.6c-0.1,0.3-0.3,0.4-0.6,0.2c-1.4-0.8-2.4-1.3-4.1-1.3c-2.2,0-3.3,0.9-3.3,2.4c0,1.4,1.3,1.7,3.7,2
      c2.5,0.4,5,1.2,5,3.7c0,2.4-1.9,4.1-5.3,4.1c-1.4,0-3.4-0.4-5.3-1.7c-0.2-0.1-0.2-0.3-0.1-0.6l0.4-0.7c0.1-0.3,0.3-0.4,0.6-0.1
      c1.1,0.8,2.7,1.4,4.4,1.4C92.5,27.2,93.5,26.1,93.5,24.8z"></path>
    <path class="st2" d="M105.4,28.8c-3.4,0-4.7-2.1-4.7-5.7V17h-1.3c-0.3,0-0.4-0.1-0.4-0.4v-0.8c0-0.3,0.1-0.4,0.4-0.4h1.3v-2.7
      c0-0.3,0.1-0.4,0.4-0.4h1.1c0.3,0,0.4,0.1,0.4,0.4v2.7h4.7c0.3,0,0.4,0.1,0.4,0.4v0.8c0,0.3-0.1,0.4-0.4,0.4h-4.7v5.9
      c0,3,0.9,4.1,3,4.1c0.7,0,1.1,0,1.8-0.4c0.3-0.2,0.4-0.1,0.5,0.2l0.1,0.8c0.1,0.3,0,0.4-0.2,0.5C106.8,28.8,105.7,28.8,105.4,28.8z"></path>
    <path class="st2" d="M123.7,26.4c0.2,0.2,0.2,0.4,0,0.6c-1.2,1.2-3.3,1.8-5.2,1.8c-3.9,0-6.9-3-6.9-6.8c0-3.8,3-6.9,6.7-6.9
      c4,0,6.4,3.3,6.4,7.1c0,0.3,0,0.4-0.4,0.4h-10.8c0.2,2.4,2.4,4.5,5,4.5c1.3,0,2.8-0.4,4.1-1.3c0.3-0.1,0.4-0.2,0.6,0L123.7,26.4z
       M122.8,21.3c-0.1-2.3-1.8-4.6-4.4-4.6c-2.7,0-4.6,2.3-4.7,4.6H122.8z"></path>
    <path class="st2" d="M131.4,18.1c0.6-1,1.9-3,4.4-3c2.8,0,5.1,1.7,5.1,5.8v7.2c0,0.3-0.1,0.4-0.4,0.4h-1.1c-0.3,0-0.4-0.1-0.4-0.4
      v-6.7c0-3-1.6-4.6-3.7-4.6c-2.3,0-3.7,2.2-3.7,4.8v6.5c0,0.3-0.1,0.4-0.4,0.4h-1.1c-0.3,0-0.4-0.1-0.4-0.4v-6.4v-5.9
      c0-0.3,0.1-0.4,0.4-0.4h0.6c0.2,0,0.3,0.1,0.4,0.4L131.4,18.1z"></path>
    <path class="st3" d="M88.4,43.6v-8.8h1.7v3.1h0.1c0.4-0.3,1-0.6,1.8-0.6c1.2,0,2.4,0.7,2.4,3.1v0.1c0,2.4-1.2,3.4-3.4,3.4
      C90.1,44,89.1,43.8,88.4,43.6z M92.7,40.8v-0.2c0-1.5-0.5-1.9-1.4-1.9c-0.4,0-0.9,0.2-1.1,0.3v3.6c0.2,0.1,0.6,0.2,1,0.2
      C92,42.8,92.7,42.4,92.7,40.8z"></path>
    <path class="st3" d="M95.4,46.1v-1.1c0.2,0,0.4,0.1,0.7,0.1c0.6,0,0.9-0.2,1.1-0.8l0.2-0.5L95,37.4h1.8l1.5,4.2h0l1.4-4.2h1.6
      l-2.5,7.1c-0.4,1.3-1.1,1.8-2.3,1.8C96.1,46.3,95.6,46.2,95.4,46.1z"></path>
    <path class="st3" d="M104.3,35.4h1.9l2.1,6.2h0l2-6.2h1.7l-3,8.5h-1.9L104.3,35.4z"></path>
    <path class="st3" d="M111.8,40.7v-0.2c0-2.1,1.3-3.2,3-3.2c2,0,2.8,1.1,2.8,3.2v0.6h-4.1c0.1,1.2,0.7,1.6,1.9,1.6
      c0.8,0,1.4-0.2,1.9-0.4v1.1c-0.4,0.3-1.2,0.6-2.3,0.6C112.9,44,111.8,42.8,111.8,40.7z M113.5,40h2.4c0-1.1-0.4-1.5-1.1-1.5
      C114.2,38.6,113.6,38.8,113.5,40z"></path>
    <path class="st3" d="M118.5,40.7v-0.2c0-2.1,1.3-3.2,3-3.2c2,0,2.8,1.1,2.8,3.2v0.6h-4.1c0.1,1.2,0.7,1.6,1.9,1.6
      c0.8,0,1.4-0.2,1.9-0.4v1.1c-0.4,0.3-1.2,0.6-2.3,0.6C119.5,44,118.5,42.8,118.5,40.7z M120.2,40h2.4c0-1.1-0.4-1.5-1.1-1.5
      C120.9,38.6,120.3,38.8,120.2,40z"></path>
    <path class="st3" d="M125.1,42.2c0-1.3,0.8-1.8,2.2-1.9l1.4-0.2v-0.4c0-0.8-0.4-1-1.4-1c-0.6,0-1.2,0.1-1.6,0.2v-1.1
      c0.6-0.2,1.4-0.4,2.3-0.4c1.5,0,2.4,0.6,2.4,1.9v4.6H129l-0.1-0.5h-0.1c-0.3,0.4-0.8,0.6-1.7,0.6C125.9,44,125.1,43.4,125.1,42.2z
       M128.7,42.5v-1.4l-1,0.1c-0.6,0.1-0.8,0.3-0.8,0.9c0,0.6,0.4,0.8,0.9,0.8C128,42.8,128.4,42.7,128.7,42.5z"></path>
    <path class="st3" d="M131.8,37.4h1.7V38h0.1c0.5-0.4,1.2-0.7,2-0.7c0.7,0,1.2,0.2,1.5,0.7h0.1c0.7-0.4,1.4-0.7,2.1-0.7
      c1.1,0,1.8,0.5,1.8,1.8v4.8h-1.7v-4.3c0-0.6-0.2-0.8-0.8-0.8c-0.4,0-0.7,0.1-1.1,0.3c0,0.1,0,0.1,0,0.2v4.6h-1.7v-4.3
      c0-0.6-0.2-0.8-0.9-0.8c-0.4,0-0.8,0.1-1.1,0.3v4.8h-1.7L131.8,37.4L131.8,37.4z"></path>
    </svg>
